<svg t="1569761579510" class="icon" viewBox="0 0 1024 1024" version="1.1" xmlns="http://www.w3.org/2000/svg" p-id="2761" width="128" height="128"><path d="M896-0h-768c-70.688 0-128 57.312-128 128v768c0 70.688 57.312 128 128 128h768c70.688 0 128-57.312 128-128v-768c0-70.688-57.312-128-128-128zM512 128c106.048 0 192 85.984 192 192s-85.952 192-192 192c-106.048 0-192-85.984-192-192 0-106.016 85.952-192 192-192zM128 896c0-176.704 143.264-320 320-320h128c176.736 0 320 143.296 320 320h-768z" fill="#999999" p-id="2762"></path></svg>